<?xml version="1.0" standalone="no"?><svg xmlns="http://www.w3.org/2000/svg" viewBox="0 0 1440 320"><path fill="#0099ff" fill-opacity="1" d="M0,256L30,213.3C60,171,120,85,180,69.3C240,53,300,107,360,144C420,181,480,203,540,213.3C600,224,660,224,720,208C780,192,840,160,900,160C960,160,1020,192,1080,213.3C1140,235,1200,245,1260,229.3C1320,213,1380,171,1410,149.3L1440,128L1440,0L1410,0C1380,0,1320,0,1260,0C1200,0,1140,0,1080,0C1020,0,960,0,900,0C840,0,780,0,720,0C660,0,600,0,540,0C480,0,420,0,360,0C300,0,240,0,180,0C120,0,60,0,30,0L0,0Z"></path></svg>